<?xml version="1.0" encoding="utf-8"?><!-- Uploaded to: SVG Repo, www.svgrepo.com, Generator: SVG Repo Mixer Tools -->
<svg fill="#000000" width="800px" height="800px" viewBox="0 0 24 24" id="air-conditioning" data-name="Flat Line" xmlns="http://www.w3.org/2000/svg" class="icon flat-line"><path id="secondary" d="M20,4H4A1,1,0,0,0,3,5v8a1,1,0,0,0,1,1H7V11a1,1,0,0,1,1-1h8a1,1,0,0,1,1,1v3h3a1,1,0,0,0,1-1V5A1,1,0,0,0,20,4Z" style="fill: rgb(44, 169, 188); stroke-width: 2;"></path><path id="primary" d="M17,11a1,1,0,0,0-1-1H8a1,1,0,0,0-1,1v3H17ZM6,18v2m4-2v2m4-2v2m4-2v2m2-6H4a1,1,0,0,1-1-1V5A1,1,0,0,1,4,4H20a1,1,0,0,1,1,1v8A1,1,0,0,1,20,14Z" style="fill: none; stroke: rgb(0, 0, 0); stroke-linecap: round; stroke-linejoin: round; stroke-width: 2;"></path></svg>